<?xml version="1.0" encoding="UTF-8"?>
<svg height="16px" viewBox="0 0 16 16" width="16px" xmlns="http://www.w3.org/2000/svg">
    <g fill-rule="evenodd">
        <path d="m 10.292969 13.320312 l -5.851563 -5.847656 l 3 -3 l 5.875 5.828125 l 1.070313 4.027344 z m 0 0"/>
        <path d="m 1.675781 4.363281 c 0 0.199219 0.078125 0.402344 0.230469 0.554688 l 1.769531 1.769531 l 3.050781 -3.054688 l -1.769531 -1.769531 c -0.304687 -0.304687 -0.800781 -0.304687 -1.109375 0 l -1.941406 1.945313 c -0.152344 0.152344 -0.230469 0.355468 -0.230469 0.554687 z m 0 0"/>
        <path d="m 10.292969 13.320312 l -5.851563 -5.847656 l 3 -3 l 5.875 5.828125 l 1.070313 4.027344 z m 0 0"/>
        <path d="m 1.675781 4.363281 c 0 0.199219 0.078125 0.402344 0.230469 0.554688 l 1.769531 1.769531 l 3.050781 -3.054688 l -1.769531 -1.769531 c -0.304687 -0.304687 -0.800781 -0.304687 -1.109375 0 l -1.941406 1.945313 c -0.152344 0.152344 -0.230469 0.355468 -0.230469 0.554687 z m 0 0"/>
    </g>
</svg>
