<?xml version="1.0" encoding="UTF-8"?>
<svg height="128px" viewBox="0 0 128 128" width="128px" xmlns="http://www.w3.org/2000/svg" xmlns:xlink="http://www.w3.org/1999/xlink">
    <linearGradient id="a" gradientUnits="userSpaceOnUse" x1="11.926743" x2="114.8007665" y1="115.265889" y2="116.26735375">
        <stop offset="0" stop-color="#77767b"/>
        <stop offset="0.0357143" stop-color="#c0bfbc"/>
        <stop offset="0.0713653" stop-color="#9a9996"/>
        <stop offset="0.928571" stop-color="#9a9996"/>
        <stop offset="0.964286" stop-color="#c0bfbc"/>
        <stop offset="1" stop-color="#77767b"/>
    </linearGradient>
    <clipPath id="b">
        <path d="m 60 40 h 29 v 27 h -29 z m 0 0"/>
    </clipPath>
    <clipPath id="c">
        <path d="m 74.300781 38.875 h -32 c -7.734375 0 -14 6.265625 -14 14 c 0 7.730469 6.265625 14 14 14 h 32 c 7.730469 0 14 -6.269531 14 -14 c 0 -7.734375 -6.269531 -14 -14 -14 z m 0 0"/>
    </clipPath>
    <clipPath id="d">
        <path d="m 28 75 h 29 v 27 h -29 z m 0 0"/>
    </clipPath>
    <clipPath id="e">
        <path d="m 42.300781 73.875 h 32 c 7.730469 0 14 6.265625 14 14 c 0 7.730469 -6.269531 14 -14 14 h -32 c -7.734375 0 -14 -6.269531 -14 -14 c 0 -7.734375 6.265625 -14 14 -14 z m 0 0"/>
    </clipPath>
    <path d="m 20.976562 30.496094 h 86.382813 c 4.417969 0 8 3.601562 8 8.042968 v 69.308594 c 0 4.441406 -3.582031 8.042969 -8 8.042969 h -86.382813 c -4.417968 0 -8 -3.601563 -8 -8.042969 v -69.308594 c 0 -4.441406 3.582032 -8.042968 8 -8.042968 z m 0 0" fill="url(#a)"/>
    <path d="m 21.003906 28.5 h 86.375 c 4.417969 0 8 3.582031 8 8 v 67.125 c 0 4.417969 -3.582031 8 -8 8 h -86.375 c -4.417968 0 -8 -3.582031 -8 -8 v -67.125 c 0 -4.417969 3.582032 -8 8 -8 z m 0 0" fill="#deddda"/>
    <path d="m 106.445312 74 v 4 c 0 2.210938 -1.792968 4 -4 4 c -2.210937 0 -4 -1.789062 -4 -4 v -2 l 4 -2 z m 0 0" fill="#949390"/>
    <path d="m 106.445312 90 v 6 h -4 c -2.214843 0 -4 -1.785156 -4 -4 v -2 z m 0 0" fill="#949390"/>
    <path d="m 106.445312 94 v -4 c 0 -2.210938 -1.792968 -4 -4 -4 c -2.210937 0 -4 1.789062 -4 4 s 1.789063 4 4 4 z m 0 0" fill="#d5d3cf"/>
    <path d="m 103.445312 92 c 0 0.550781 0.445313 1 1 1 c 0.550782 0 1 -0.449219 1 -1 s -0.449218 -1 -1 -1 c -0.554687 0 -1 0.449219 -1 1 z m 0 0" fill="#68676b"/>
    <path d="m 106.445312 72 v 4 c 0 2.210938 -1.792968 4 -4 4 c -2.210937 0 -4 -1.789062 -4 -4 s 1.789063 -4 4 -4 z m 0 0" fill="#d5d3cf"/>
    <path d="m 103.445312 74 c 0 -0.550781 0.445313 -1 1 -1 c 0.550782 0 1 0.449219 1 1 s -0.449218 1 -1 1 c -0.554687 0 -1 -0.449219 -1 -1 z m 0 0" fill="#68676b"/>
    <path d="m 98.445312 60 v 4 c 0 2.210938 1.789063 4 4 4 c 2.207032 0 4 -1.789062 4 -4 v -2 l -4 -2 z m 0 0" fill="#949390"/>
    <path d="m 98.445312 58 v 4 c 0 2.210938 1.789063 4 4 4 c 2.207032 0 4 -1.789062 4 -4 s -1.792968 -4 -4 -4 z m 0 0" fill="#d5d3cf"/>
    <path d="m 101.445312 60 c 0 -0.550781 -0.449218 -1 -1 -1 c -0.554687 0 -1 0.449219 -1 1 s 0.445313 1 1 1 c 0.550782 0 1 -0.449219 1 -1 z m 0 0" fill="#68676b"/>
    <path d="m 106.445312 48 v 6 h -4 c -2.214843 0 -4 -1.785156 -4 -4 v -2 z m 0 0" fill="#949390"/>
    <path d="m 106.445312 52 v -4 c 0 -2.210938 -1.792968 -4 -4 -4 c -2.210937 0 -4 1.789062 -4 4 s 1.789063 4 4 4 z m 0 0" fill="#d5d3cf"/>
    <path d="m 103.445312 50 c 0 0.550781 0.445313 1 1 1 c 0.550782 0 1 -0.449219 1 -1 s -0.449218 -1 -1 -1 c -0.554687 0 -1 0.449219 -1 1 z m 0 0" fill="#68676b"/>
    <path d="m 42.300781 36.875 c -7.757812 0 -14 6.242188 -14 14 c 0 0.335938 0.027344 0.667969 0.050781 1 c 0.511719 -7.285156 6.53125 -13 13.949219 -13 h 32 c 7.417969 0 13.4375 5.714844 13.949219 13 c 0.023438 -0.332031 0.050781 -0.664062 0.050781 -1 c 0 -7.757812 -6.246093 -14 -14 -14 z m 0 0" fill="#892ca0"/>
    <path d="m 74.300781 38.875 h -32 c -7.734375 0 -14 6.265625 -14 14 c 0 7.730469 6.265625 14 14 14 h 32 c 7.730469 0 14 -6.269531 14 -14 c 0 -7.734375 -6.269531 -14 -14 -14 z m 0 0" fill="#ab37c8"/>
    <g clip-path="url(#b)">
        <g clip-path="url(#c)">
            <path d="m 60.300781 54.875 c 0 7.730469 6.265625 14 14 14 c 7.730469 0 14 -6.269531 14 -14 c 0 -7.734375 -6.269531 -14 -14 -14 c -7.734375 0 -14 6.265625 -14 14 z m 0 0" fill="#deddda"/>
        </g>
    </g>
    <path d="m 88.300781 48.875 h -28 v 6 h 28 z m 0 0" fill="#deddda"/>
    <path d="m 60.300781 48.875 c 0 7.730469 6.265625 14 14 14 c 7.730469 0 14 -6.269531 14 -14 c 0 -7.734375 -6.269531 -14 -14 -14 c -7.734375 0 -14 6.265625 -14 14 z m 0 0" fill="#ffffff"/>
    <path d="m 74.300781 71.875 c 7.753907 0 14 6.242188 14 14 c 0 0.335938 -0.027343 0.667969 -0.050781 1 c -0.511719 -7.285156 -6.53125 -13 -13.949219 -13 h -32 c -7.417969 0 -13.4375 5.714844 -13.949219 13 c -0.023437 -0.332031 -0.050781 -0.664062 -0.050781 -1 c 0 -7.757812 6.242188 -14 14 -14 z m 0 0" fill="#9a9996"/>
    <path d="m 42.300781 73.875 h 32 c 7.730469 0 14 6.265625 14 14 c 0 7.730469 -6.269531 14 -14 14 h -32 c -7.734375 0 -14 -6.269531 -14 -14 c 0 -7.734375 6.265625 -14 14 -14 z m 0 0" fill="#c0bfbc"/>
    <g clip-path="url(#d)">
        <g clip-path="url(#e)">
            <path d="m 56.300781 89.875 c 0 7.730469 -6.269531 14 -14 14 c -7.734375 0 -14 -6.269531 -14 -14 c 0 -7.734375 6.265625 -14 14 -14 c 7.730469 0 14 6.265625 14 14 z m 0 0" fill="#deddda"/>
        </g>
    </g>
    <path d="m 28.300781 83.875 h 28 v 6 h -28 z m 0 0" fill="#deddda"/>
    <path d="m 56.300781 83.875 c 0 7.730469 -6.269531 14 -14 14 c -7.734375 0 -14 -6.269531 -14 -14 c 0 -7.734375 6.265625 -14 14 -14 c 7.730469 0 14 6.265625 14 14 z m 0 0" fill="#ffffff"/>
</svg>
